<svg xmlns="http://www.w3.org/2000/svg" shape-rendering="geometricPrecision" text-rendering="geometricPrecision" image-rendering="optimizeQuality" fill-rule="evenodd" clip-rule="evenodd" viewBox="0 0 512 479.263"><path fill-rule="nonzero" d="M383.448 28.962v140.557c0 7.973-3.257 15.219-8.5 20.462-5.243 5.244-12.489 8.5-20.463 8.5h-88.266v35.976h178.374c7.974 0 15.22 3.256 20.463 8.499s8.5 12.489 8.5 20.463v70.195c0 5.527-4.481 10.007-10.008 10.007-5.527 0-10.007-4.48-10.007-10.007v-70.195a8.916 8.916 0 00-2.635-6.312 8.916 8.916 0 00-6.313-2.635H266.219v79.214c0 5.527-4.48 10.007-10.007 10.007-5.527 0-10.008-4.48-10.008-10.007v-79.214H67.83a8.914 8.914 0 00-6.312 2.635l-.019-.02a8.963 8.963 0 00-2.616 6.332v70.267c0 5.527-4.481 10.007-10.008 10.007-5.527 0-10.007-4.48-10.007-10.007v-70.267c0-7.948 3.256-15.178 8.5-20.424l.02-.018-.02-.021c5.243-5.243 12.488-8.499 20.462-8.499h178.374v-35.976h-88.266c-7.974 0-15.219-3.256-20.462-8.5-5.244-5.243-8.5-12.489-8.5-20.462V28.962c0-7.974 3.256-15.219 8.5-20.463C142.719 3.256 149.964 0 157.938 0h196.547c7.974 0 15.22 3.256 20.463 8.499 5.243 5.244 8.5 12.489 8.5 20.463zM97.443 367.966v99.437c0 6.523-5.339 11.86-11.859 11.86H11.86c-6.521 0-11.86-5.34-11.86-11.86v-99.437c0-6.521 5.337-11.86 11.86-11.86h73.724c6.522 0 11.859 5.337 11.859 11.86zm207.59 0v99.437c0 6.523-5.339 11.86-11.86 11.86h-73.724c-6.52 0-11.859-5.34-11.859-11.86v-99.437c0-6.521 5.337-11.86 11.859-11.86h73.724c6.523 0 11.86 5.337 11.86 11.86zm206.967 0v99.437c0 6.523-5.339 11.86-11.86 11.86h-73.724c-6.52 0-11.859-5.34-11.859-11.86v-99.437c0-6.521 5.337-11.86 11.859-11.86h73.724c6.523 0 11.86 5.337 11.86 11.86zm-256.798-189.5a9.913 9.913 0 012.02 0h97.263a8.92 8.92 0 006.313-2.635 8.92 8.92 0 002.635-6.312V28.962c0-2.451-1.01-4.687-2.635-6.312a8.92 8.92 0 00-6.313-2.635H157.938c-2.451 0-4.687 1.01-6.312 2.635-1.625 1.625-2.635 3.861-2.635 6.312v140.557a8.92 8.92 0 002.635 6.312c1.625 1.625 3.861 2.635 6.312 2.635h97.264z"/></svg>