<?xml version="1.0" encoding="utf-8"?><svg version="1.1" id="Layer_1" xmlns="http://www.w3.org/2000/svg" xmlns:xlink="http://www.w3.org/1999/xlink" x="0px" y="0px" viewBox="0 0 124.05 122.88" style="enable-background:new 0 0 124.05 122.88" xml:space="preserve"><style type="text/css">.st0{fill-rule:evenodd;clip-rule:evenodd;}</style><g><path class="st0" d="M116.5,83.17c2.09,0,3.97,0.84,5.34,2.21c1.37,1.37,2.21,3.26,2.21,5.34c0,2.09-0.84,3.97-2.21,5.34 c-1.37,1.37-3.26,2.21-5.34,2.21c-2.09,0-3.97-0.84-5.34-2.21c-0.71-0.71-1.29-1.56-1.67-2.52H90.71c-1.48,0-2.68-1.2-2.68-2.68 v-17H73.85v34.41c1.01,0.38,1.91,0.98,2.65,1.72c1.37,1.37,2.21,3.26,2.21,5.34c0,2.09-0.84,3.97-2.21,5.34 c-1.37,1.37-3.26,2.21-5.34,2.21c-2.09,0-3.97-0.84-5.34-2.21c-1.37-1.37-2.21-3.26-2.21-5.34c0-2.09,0.84-3.97,2.21-5.34 c0.75-0.75,1.65-1.34,2.65-1.72v-34.4H52.46v41.03c0,1.48-1.2,2.68-2.68,2.68H19.92c-0.37,1.18-1.02,2.24-1.87,3.09 c-1.37,1.37-3.26,2.21-5.34,2.21c-2.09,0-3.97-0.84-5.34-2.21c-1.37-1.37-2.21-3.26-2.21-5.34c0-2.09,0.84-3.97,2.21-5.34 c1.37-1.37,3.26-2.21,5.34-2.21c2.09,0,3.97,0.84,5.34,2.21c0.64,0.64,1.16,1.39,1.54,2.22h27.5V73.86H33.58v10.36 c0,1.48-1.2,2.68-2.68,2.68H14.59c-0.38,0.98-0.97,1.85-1.7,2.58c-1.37,1.37-3.26,2.21-5.34,2.21c-2.08,0-3.97-0.84-5.34-2.21 C0.84,88.13,0,86.24,0,84.15c0-2.09,0.84-3.97,2.21-5.34c1.37-1.37,3.26-2.21,5.34-2.21c2.08,0,3.97,0.84,5.34,2.21 c0.76,0.76,1.37,1.7,1.75,2.72H28.2v-7.68h-1.41l-0.43-0.04c-2.49-0.32-4.76-0.91-6.81-1.75c-2.12-0.87-4-2-5.65-3.39 c-1.56-1.31-2.94-2.8-4.11-4.41C6.67,59.97,5,54.71,4.96,49.49c-0.01-5.27,1.63-10.53,5.18-14.78c1.15-1.38,2.5-2.64,4.05-3.76 c1.8-1.31,3.87-2.42,6.19-3.32c1.6-0.63,3.32-1.15,5.14-1.56c2.06-8.15,6.44-14.44,12.06-18.81c5.26-4.08,11.61-6.46,18.13-7.08 c6.49-0.63,13.18,0.47,19.18,3.35c6.56,3.15,12.27,8.38,15.98,15.75c1.49-0.24,2.98-0.35,4.47-0.34 c6.27,0.04,12.32,2.28,17.09,7.42c1,1.08,1.94,2.28,2.83,3.64c2.99,4.6,4.51,10.72,4.45,16.73c-0.06,5.89-1.66,11.75-4.9,16.07 c-4.6,6.12-11.71,9.29-18.99,10.97l-0.76,0.09h-1.62v14.32h15.99c0.38-1.06,0.99-2.02,1.77-2.8 C112.52,84.02,114.41,83.17,116.5,83.17L116.5,83.17z M61.98,28.47c4.29,2.72,8.17,4.01,11.5,3.71 c0.58,11.76-3.76,18.71-11.46,21.6c-7.43-2.71-11.83-9.36-11.5-21.78C54.43,32.2,58.27,31.35,61.98,28.47L61.98,28.47L61.98,28.47z M61.96,19.6c7.3,4.63,13.9,6.82,19.56,6.3c0.99,20-6.4,31.81-19.49,36.74C49.39,58.03,41.91,46.73,42.47,25.6 C49.12,25.95,55.64,24.51,61.96,19.6L61.96,19.6L61.96,19.6z"/></g></svg>