<svg xmlns="http://www.w3.org/2000/svg" shape-rendering="geometricPrecision" text-rendering="geometricPrecision" image-rendering="optimizeQuality" fill-rule="evenodd" clip-rule="evenodd" viewBox="0 0 512 341.97"><path fill-rule="nonzero" d="M83.65 194.56a35.511 35.511 0 01-2.96-3.63c-2.18-3-4.23-6.12-6.21-9.26L64.64 166c-3.74-5.45-5.7-10.42-5.7-14.36 0-3.95 2.23-9.08 6.68-10.23-.35-5.89-.58-11.88-.58-17.81 0-3.51.06-7.05.19-10.53.2-2.2.6-4.38 1.19-6.5 2.73-8.91 8.7-16.5 16.72-21.25 2.85-1.79 5.9-3.25 9.09-4.33 5.72-2.17 2.95-10.9 9.26-11.03 14.72-.38 38.92 12.22 48.36 22.45a37.287 37.287 0 019.65 24.2l-.6 25.79c2.62.63 4.67 2.68 5.32 5.3.44 1.79.38 3.95-.26 6.61-6.01 1.7-11.82 3.77-17.21 6.64l-.86.44c-24.07 13.31-27.45 32.39-31.11 53.1-.55 3.17-1.13 6.39-1.78 9.47-.36 1.36-.55 2.79-.55 4.27 0 5.23-1.81 25.65-1.67 42.27H0c0-58.76 63.15-40.1 84.62-69.62 2.46-3.63 1.81-3.36-.97-6.32zm166.1 7.72c10.83 0 21.08 2.47 30.24 6.87-3.75 2.97-7.22 5.81-10.46 8.55a57.83 57.83 0 00-19.77-3.46c-15.98 0-30.46 6.48-40.93 16.96-10.48 10.47-16.95 24.94-16.95 40.92 0 15.99 6.47 30.45 16.95 40.93 10.48 10.47 24.95 16.95 40.93 16.95s30.46-6.48 40.93-16.95c10.47-10.48 16.95-24.94 16.95-40.93 0-3.8-.37-7.52-1.07-11.12 3.01-3.91 6.08-7.82 9.22-11.69a69.756 69.756 0 013.81 22.81c0 19.28-7.82 36.75-20.45 49.39-12.64 12.63-30.11 20.46-49.39 20.46s-36.75-7.83-49.39-20.46c-12.65-12.64-20.46-30.11-20.46-49.39s7.81-36.75 20.45-49.39c12.64-12.63 30.1-20.45 49.39-20.45zm-32.54 58.37l17.04-.23 1.27.33c3.44 1.99 6.68 4.25 9.71 6.82 2.18 1.85 4.27 3.86 6.25 6.05 6.11-9.84 12.63-18.87 19.51-27.18 7.53-9.1 15.53-17.36 23.93-24.89l1.66-.64h18.6l-3.75 4.16c-11.53 12.81-21.98 26.04-31.42 39.68a386.37 386.37 0 00-25.41 42.27l-2.34 4.51-2.15-4.6c-3.96-8.5-8.7-16.31-14.37-23.29-5.65-6.97-12.24-13.17-19.92-18.44l1.39-4.55zm2.05-107.81l13.19 34.62c-37.81 9.22-66.11 42.71-67.44 83.03h-37.13c.87-30.47-4.17-77.86 26-94.53 18.47-10.29 50.26-9.51 65.38-23.12zm28.83 32.27l2.57-7.31-5.16-5.63c-3.87-5.66-2.53-12.08 4.64-13.24 2.75-.45 13.74-.4 16.31.17 6.66 1.47 7.36 7.93 4.04 13.07l-5.15 5.63 2.94 8.38c-4.81-.81-9.75-1.24-14.79-1.24-1.82 0-3.62.06-5.4.17zm33.97 4.55l12.69-36.82c13.63 12.27 50.34 14.74 65.36 23.12 29.78 16.67 25.16 64.91 26.21 94.53h-44.36c-1.24-37.59-25.92-69.25-59.9-80.83zm-66.66-73.61c-1.89.03-3.44-.21-5.12-1.14-2.24-1.24-3.82-3.37-4.89-5.78-2.25-5.04-4.04-18.32 1.63-22.12l-1.05-.69-.13-1.47c-.21-2.67-.27-5.9-.32-9.29-.21-12.49-.47-27.61-10.78-30.65l-4.42-1.3 2.91-3.52c8.34-10.02 17.04-18.78 25.81-25.51C228.97 6.97 239.06 1.9 248.93.44c10.15-1.5 19.99.77 29.07 7.92 2.68 2.11 5.28 4.65 7.79 7.62 9.69.91 17.61 6 23.27 13.25 3.37 4.33 5.95 9.45 7.57 14.89 1.63 5.42 2.34 11.2 2.04 16.88-.55 10.18-4.37 20.12-12.07 27.37 1.35.04 2.63.35 3.75.94 4.3 2.24 4.44 7.1 3.31 11.18-1.11 3.41-2.53 7.36-3.87 10.68-1.62 4.48-4 5.32-8.6 4.84-10.32 45.16-72.74 46.71-85.79.04zm138.15 39.56c.07-3.78 2.22-8.6 6.45-9.69-.34-5.69-.57-11.48-.57-17.2 0-3.38.07-6.8.2-10.15.18-2.13.57-4.23 1.14-6.28a36.12 36.12 0 0116.14-20.5c2.74-1.73 5.69-3.14 8.76-4.19 5.52-2.09 2.86-10.52 8.94-10.64 14.21-.37 37.57 11.8 46.68 21.66a36.1 36.1 0 019.31 23.36l-.58 24.89c2.53.61 4.5 2.59 5.13 5.11.76 3.05 0 7.22-2.66 13.11 0 .19-.19.19-.19.38l-10.84 17.86c-2.45 4.03-4.99 8.15-7.84 11.94-3.39 4.52-6.17 3.71-3.28 8.04C451.07 231.8 512 213.82 512 270.5H399.92c2.18-18.01 2.38-40.5 1.24-45.78-.73-3.35-1.36-6.87-1.96-10.33-3.66-20.72-6.97-39.5-30.96-52.93l-.02.03-.05-.03c-4.21-2.35-9.19-4.21-14.62-5.85z"/></svg>